<mxfile host="app.diagrams.net" agent="Mozilla/5.0 (Windows NT 10.0; Win64; x64) AppleWebKit/537.36 (KHTML, like Gecko) Chrome/130.0.0.0 Safari/537.36" version="24.8.3">
  <diagram id="AXRmiALY-gt5mDKcBv-0" name="Page-1">
    <mxGraphModel dx="1059" dy="965" grid="1" gridSize="10" guides="1" tooltips="1" connect="1" arrows="1" fold="1" page="1" pageScale="1" pageWidth="1654" pageHeight="1169" math="0" shadow="0">
      <root>
        <mxCell id="0" />
        <mxCell id="1" parent="0" />
        <mxCell id="W24L-8EDtj-rmbcyrjGX-74" value="Order Header" style="shape=table;startSize=30;container=1;collapsible=1;childLayout=tableLayout;fixedRows=1;rowLines=0;fontStyle=1;align=center;resizeLast=1;movable=1;resizable=1;rotatable=1;deletable=1;editable=1;locked=0;connectable=1;" parent="1" vertex="1">
          <mxGeometry x="820.5" y="518.5" width="160" height="170" as="geometry" />
        </mxCell>
        <mxCell id="W24L-8EDtj-rmbcyrjGX-75" value="" style="shape=tableRow;horizontal=0;startSize=0;swimlaneHead=0;swimlaneBody=0;fillColor=none;collapsible=0;dropTarget=0;points=[[0,0.5],[1,0.5]];portConstraint=eastwest;top=0;left=0;right=0;bottom=1;movable=1;resizable=1;rotatable=1;deletable=1;editable=1;locked=0;connectable=1;" parent="W24L-8EDtj-rmbcyrjGX-74" vertex="1">
          <mxGeometry y="30" width="160" height="30" as="geometry" />
        </mxCell>
        <mxCell id="W24L-8EDtj-rmbcyrjGX-76" value="PK" style="shape=partialRectangle;connectable=1;fillColor=none;top=0;left=0;bottom=0;right=0;fontStyle=1;overflow=hidden;movable=1;resizable=1;rotatable=1;deletable=1;editable=1;locked=0;" parent="W24L-8EDtj-rmbcyrjGX-75" vertex="1">
          <mxGeometry width="30" height="30" as="geometry">
            <mxRectangle width="30" height="30" as="alternateBounds" />
          </mxGeometry>
        </mxCell>
        <mxCell id="W24L-8EDtj-rmbcyrjGX-77" value="Order_ID" style="shape=partialRectangle;connectable=1;fillColor=none;top=0;left=0;bottom=0;right=0;align=left;spacingLeft=6;fontStyle=5;overflow=hidden;movable=1;resizable=1;rotatable=1;deletable=1;editable=1;locked=0;" parent="W24L-8EDtj-rmbcyrjGX-75" vertex="1">
          <mxGeometry x="30" width="130" height="30" as="geometry">
            <mxRectangle width="130" height="30" as="alternateBounds" />
          </mxGeometry>
        </mxCell>
        <mxCell id="W24L-8EDtj-rmbcyrjGX-78" value="" style="shape=tableRow;horizontal=0;startSize=0;swimlaneHead=0;swimlaneBody=0;fillColor=none;collapsible=0;dropTarget=0;points=[[0,0.5],[1,0.5]];portConstraint=eastwest;top=0;left=0;right=0;bottom=0;movable=1;resizable=1;rotatable=1;deletable=1;editable=1;locked=0;connectable=1;" parent="W24L-8EDtj-rmbcyrjGX-74" vertex="1">
          <mxGeometry y="60" width="160" height="25" as="geometry" />
        </mxCell>
        <mxCell id="W24L-8EDtj-rmbcyrjGX-79" value="FK" style="shape=partialRectangle;connectable=1;fillColor=none;top=0;left=0;bottom=0;right=0;editable=1;overflow=hidden;movable=1;resizable=1;rotatable=1;deletable=1;locked=0;" parent="W24L-8EDtj-rmbcyrjGX-78" vertex="1">
          <mxGeometry width="30" height="25" as="geometry">
            <mxRectangle width="30" height="25" as="alternateBounds" />
          </mxGeometry>
        </mxCell>
        <mxCell id="W24L-8EDtj-rmbcyrjGX-80" value="Customer_ID" style="shape=partialRectangle;connectable=1;fillColor=none;top=0;left=0;bottom=0;right=0;align=left;spacingLeft=6;overflow=hidden;spacing=2;spacingBottom=0;spacingTop=0;movable=1;resizable=1;rotatable=1;deletable=1;editable=1;locked=0;" parent="W24L-8EDtj-rmbcyrjGX-78" vertex="1">
          <mxGeometry x="30" width="130" height="25" as="geometry">
            <mxRectangle width="130" height="25" as="alternateBounds" />
          </mxGeometry>
        </mxCell>
        <mxCell id="W24L-8EDtj-rmbcyrjGX-81" value="" style="shape=tableRow;horizontal=0;startSize=0;swimlaneHead=0;swimlaneBody=0;fillColor=none;collapsible=0;dropTarget=0;points=[[0,0.5],[1,0.5]];portConstraint=eastwest;top=0;left=0;right=0;bottom=0;movable=1;resizable=1;rotatable=1;deletable=1;editable=1;locked=0;connectable=1;" parent="W24L-8EDtj-rmbcyrjGX-74" vertex="1">
          <mxGeometry y="85" width="160" height="25" as="geometry" />
        </mxCell>
        <mxCell id="W24L-8EDtj-rmbcyrjGX-82" value="" style="shape=partialRectangle;connectable=1;fillColor=none;top=0;left=0;bottom=0;right=0;editable=1;overflow=hidden;movable=1;resizable=1;rotatable=1;deletable=1;locked=0;" parent="W24L-8EDtj-rmbcyrjGX-81" vertex="1">
          <mxGeometry width="30" height="25" as="geometry">
            <mxRectangle width="30" height="25" as="alternateBounds" />
          </mxGeometry>
        </mxCell>
        <mxCell id="W24L-8EDtj-rmbcyrjGX-83" value="Order Date" style="shape=partialRectangle;connectable=1;fillColor=none;top=0;left=0;bottom=0;right=0;align=left;spacingLeft=6;overflow=hidden;movable=1;resizable=1;rotatable=1;deletable=1;editable=1;locked=0;" parent="W24L-8EDtj-rmbcyrjGX-81" vertex="1">
          <mxGeometry x="30" width="130" height="25" as="geometry">
            <mxRectangle width="130" height="25" as="alternateBounds" />
          </mxGeometry>
        </mxCell>
        <mxCell id="W24L-8EDtj-rmbcyrjGX-84" value="" style="shape=tableRow;horizontal=0;startSize=0;swimlaneHead=0;swimlaneBody=0;fillColor=none;collapsible=0;dropTarget=0;points=[[0,0.5],[1,0.5]];portConstraint=eastwest;top=0;left=0;right=0;bottom=0;movable=1;resizable=1;rotatable=1;deletable=1;editable=1;locked=0;connectable=1;" parent="W24L-8EDtj-rmbcyrjGX-74" vertex="1">
          <mxGeometry y="110" width="160" height="25" as="geometry" />
        </mxCell>
        <mxCell id="W24L-8EDtj-rmbcyrjGX-85" value="" style="shape=partialRectangle;connectable=1;fillColor=none;top=0;left=0;bottom=0;right=0;editable=1;overflow=hidden;movable=1;resizable=1;rotatable=1;deletable=1;locked=0;" parent="W24L-8EDtj-rmbcyrjGX-84" vertex="1">
          <mxGeometry width="30" height="25" as="geometry">
            <mxRectangle width="30" height="25" as="alternateBounds" />
          </mxGeometry>
        </mxCell>
        <mxCell id="W24L-8EDtj-rmbcyrjGX-86" value="Status" style="shape=partialRectangle;connectable=1;fillColor=none;top=0;left=0;bottom=0;right=0;align=left;spacingLeft=6;overflow=hidden;movable=1;resizable=1;rotatable=1;deletable=1;editable=1;locked=0;" parent="W24L-8EDtj-rmbcyrjGX-84" vertex="1">
          <mxGeometry x="30" width="130" height="25" as="geometry">
            <mxRectangle width="130" height="25" as="alternateBounds" />
          </mxGeometry>
        </mxCell>
        <mxCell id="W24L-8EDtj-rmbcyrjGX-87" value="" style="shape=tableRow;horizontal=0;startSize=0;swimlaneHead=0;swimlaneBody=0;fillColor=none;collapsible=0;dropTarget=0;points=[[0,0.5],[1,0.5]];portConstraint=eastwest;top=0;left=0;right=0;bottom=0;movable=1;resizable=1;rotatable=1;deletable=1;editable=1;locked=0;connectable=1;" parent="W24L-8EDtj-rmbcyrjGX-74" vertex="1">
          <mxGeometry y="135" width="160" height="25" as="geometry" />
        </mxCell>
        <mxCell id="W24L-8EDtj-rmbcyrjGX-88" value="" style="shape=partialRectangle;connectable=1;fillColor=none;top=0;left=0;bottom=0;right=0;editable=1;overflow=hidden;movable=1;resizable=1;rotatable=1;deletable=1;locked=0;" parent="W24L-8EDtj-rmbcyrjGX-87" vertex="1">
          <mxGeometry width="30" height="25" as="geometry">
            <mxRectangle width="30" height="25" as="alternateBounds" />
          </mxGeometry>
        </mxCell>
        <mxCell id="W24L-8EDtj-rmbcyrjGX-89" value="Total Amount" style="shape=partialRectangle;connectable=1;fillColor=none;top=0;left=0;bottom=0;right=0;align=left;spacingLeft=6;overflow=hidden;movable=1;resizable=1;rotatable=1;deletable=1;editable=1;locked=0;" parent="W24L-8EDtj-rmbcyrjGX-87" vertex="1">
          <mxGeometry x="30" width="130" height="25" as="geometry">
            <mxRectangle width="130" height="25" as="alternateBounds" />
          </mxGeometry>
        </mxCell>
        <mxCell id="W24L-8EDtj-rmbcyrjGX-290" value="Customer" style="shape=table;startSize=30;container=1;collapsible=1;childLayout=tableLayout;fixedRows=1;rowLines=0;fontStyle=1;align=center;resizeLast=1;" parent="1" vertex="1">
          <mxGeometry x="604.5" y="100" width="160" height="266" as="geometry" />
        </mxCell>
        <mxCell id="W24L-8EDtj-rmbcyrjGX-291" value="" style="shape=tableRow;horizontal=0;startSize=0;swimlaneHead=0;swimlaneBody=0;fillColor=none;collapsible=0;dropTarget=0;points=[[0,0.5],[1,0.5]];portConstraint=eastwest;top=0;left=0;right=0;bottom=1;" parent="W24L-8EDtj-rmbcyrjGX-290" vertex="1">
          <mxGeometry y="30" width="160" height="30" as="geometry" />
        </mxCell>
        <mxCell id="W24L-8EDtj-rmbcyrjGX-292" value="PK" style="shape=partialRectangle;connectable=0;fillColor=none;top=0;left=0;bottom=0;right=0;fontStyle=1;overflow=hidden;" parent="W24L-8EDtj-rmbcyrjGX-291" vertex="1">
          <mxGeometry width="33" height="30" as="geometry">
            <mxRectangle width="33" height="30" as="alternateBounds" />
          </mxGeometry>
        </mxCell>
        <mxCell id="W24L-8EDtj-rmbcyrjGX-293" value="Customer_ID" style="shape=partialRectangle;connectable=0;fillColor=none;top=0;left=0;bottom=0;right=0;align=left;spacingLeft=6;fontStyle=5;overflow=hidden;" parent="W24L-8EDtj-rmbcyrjGX-291" vertex="1">
          <mxGeometry x="33" width="127" height="30" as="geometry">
            <mxRectangle width="127" height="30" as="alternateBounds" />
          </mxGeometry>
        </mxCell>
        <mxCell id="W24L-8EDtj-rmbcyrjGX-294" value="" style="shape=tableRow;horizontal=0;startSize=0;swimlaneHead=0;swimlaneBody=0;fillColor=none;collapsible=0;dropTarget=0;points=[[0,0.5],[1,0.5]];portConstraint=eastwest;top=0;left=0;right=0;bottom=0;" parent="W24L-8EDtj-rmbcyrjGX-290" vertex="1">
          <mxGeometry y="60" width="160" height="25" as="geometry" />
        </mxCell>
        <mxCell id="W24L-8EDtj-rmbcyrjGX-295" value="FK" style="shape=partialRectangle;connectable=0;fillColor=none;top=0;left=0;bottom=0;right=0;editable=1;overflow=hidden;" parent="W24L-8EDtj-rmbcyrjGX-294" vertex="1">
          <mxGeometry width="33" height="25" as="geometry">
            <mxRectangle width="33" height="25" as="alternateBounds" />
          </mxGeometry>
        </mxCell>
        <mxCell id="W24L-8EDtj-rmbcyrjGX-296" value="Address_ID" style="shape=partialRectangle;connectable=0;fillColor=none;top=0;left=0;bottom=0;right=0;align=left;spacingLeft=6;overflow=hidden;spacing=2;spacingBottom=0;spacingTop=0;" parent="W24L-8EDtj-rmbcyrjGX-294" vertex="1">
          <mxGeometry x="33" width="127" height="25" as="geometry">
            <mxRectangle width="127" height="25" as="alternateBounds" />
          </mxGeometry>
        </mxCell>
        <mxCell id="W24L-8EDtj-rmbcyrjGX-300" value="" style="shape=tableRow;horizontal=0;startSize=0;swimlaneHead=0;swimlaneBody=0;fillColor=none;collapsible=0;dropTarget=0;points=[[0,0.5],[1,0.5]];portConstraint=eastwest;top=0;left=0;right=0;bottom=0;" parent="W24L-8EDtj-rmbcyrjGX-290" vertex="1">
          <mxGeometry y="85" width="160" height="31" as="geometry" />
        </mxCell>
        <mxCell id="W24L-8EDtj-rmbcyrjGX-301" value="" style="shape=partialRectangle;connectable=0;fillColor=none;top=0;left=0;bottom=0;right=0;editable=1;overflow=hidden;" parent="W24L-8EDtj-rmbcyrjGX-300" vertex="1">
          <mxGeometry width="33" height="31" as="geometry">
            <mxRectangle width="33" height="31" as="alternateBounds" />
          </mxGeometry>
        </mxCell>
        <mxCell id="W24L-8EDtj-rmbcyrjGX-302" value="Username" style="shape=partialRectangle;connectable=0;fillColor=none;top=0;left=0;bottom=0;right=0;align=left;spacingLeft=6;overflow=hidden;fontStyle=0" parent="W24L-8EDtj-rmbcyrjGX-300" vertex="1">
          <mxGeometry x="33" width="127" height="31" as="geometry">
            <mxRectangle width="127" height="31" as="alternateBounds" />
          </mxGeometry>
        </mxCell>
        <mxCell id="W24L-8EDtj-rmbcyrjGX-303" value="" style="shape=tableRow;horizontal=0;startSize=0;swimlaneHead=0;swimlaneBody=0;fillColor=none;collapsible=0;dropTarget=0;points=[[0,0.5],[1,0.5]];portConstraint=eastwest;top=0;left=0;right=0;bottom=0;" parent="W24L-8EDtj-rmbcyrjGX-290" vertex="1">
          <mxGeometry y="116" width="160" height="25" as="geometry" />
        </mxCell>
        <mxCell id="W24L-8EDtj-rmbcyrjGX-304" value="" style="shape=partialRectangle;connectable=0;fillColor=none;top=0;left=0;bottom=0;right=0;editable=1;overflow=hidden;" parent="W24L-8EDtj-rmbcyrjGX-303" vertex="1">
          <mxGeometry width="33" height="25" as="geometry">
            <mxRectangle width="33" height="25" as="alternateBounds" />
          </mxGeometry>
        </mxCell>
        <mxCell id="W24L-8EDtj-rmbcyrjGX-305" value="Password" style="shape=partialRectangle;connectable=0;fillColor=none;top=0;left=0;bottom=0;right=0;align=left;spacingLeft=6;overflow=hidden;fontStyle=0" parent="W24L-8EDtj-rmbcyrjGX-303" vertex="1">
          <mxGeometry x="33" width="127" height="25" as="geometry">
            <mxRectangle width="127" height="25" as="alternateBounds" />
          </mxGeometry>
        </mxCell>
        <mxCell id="H6wV0lY-GphbkO9nDZzQ-16" value="" style="shape=tableRow;horizontal=0;startSize=0;swimlaneHead=0;swimlaneBody=0;fillColor=none;collapsible=0;dropTarget=0;points=[[0,0.5],[1,0.5]];portConstraint=eastwest;top=0;left=0;right=0;bottom=0;" vertex="1" parent="W24L-8EDtj-rmbcyrjGX-290">
          <mxGeometry y="141" width="160" height="25" as="geometry" />
        </mxCell>
        <mxCell id="H6wV0lY-GphbkO9nDZzQ-17" value="" style="shape=partialRectangle;connectable=0;fillColor=none;top=0;left=0;bottom=0;right=0;editable=1;overflow=hidden;" vertex="1" parent="H6wV0lY-GphbkO9nDZzQ-16">
          <mxGeometry width="33" height="25" as="geometry">
            <mxRectangle width="33" height="25" as="alternateBounds" />
          </mxGeometry>
        </mxCell>
        <mxCell id="H6wV0lY-GphbkO9nDZzQ-18" value="First Name" style="shape=partialRectangle;connectable=0;fillColor=none;top=0;left=0;bottom=0;right=0;align=left;spacingLeft=6;overflow=hidden;spacing=2;spacingBottom=0;spacingTop=0;fontStyle=0" vertex="1" parent="H6wV0lY-GphbkO9nDZzQ-16">
          <mxGeometry x="33" width="127" height="25" as="geometry">
            <mxRectangle width="127" height="25" as="alternateBounds" />
          </mxGeometry>
        </mxCell>
        <mxCell id="R4HA2hypXB2nSjlr7d-l-1" value="" style="shape=tableRow;horizontal=0;startSize=0;swimlaneHead=0;swimlaneBody=0;fillColor=none;collapsible=0;dropTarget=0;points=[[0,0.5],[1,0.5]];portConstraint=eastwest;top=0;left=0;right=0;bottom=0;" parent="W24L-8EDtj-rmbcyrjGX-290" vertex="1">
          <mxGeometry y="166" width="160" height="25" as="geometry" />
        </mxCell>
        <mxCell id="R4HA2hypXB2nSjlr7d-l-2" value="" style="shape=partialRectangle;connectable=0;fillColor=none;top=0;left=0;bottom=0;right=0;editable=1;overflow=hidden;" parent="R4HA2hypXB2nSjlr7d-l-1" vertex="1">
          <mxGeometry width="33" height="25" as="geometry">
            <mxRectangle width="33" height="25" as="alternateBounds" />
          </mxGeometry>
        </mxCell>
        <mxCell id="R4HA2hypXB2nSjlr7d-l-3" value="Last Name" style="shape=partialRectangle;connectable=0;fillColor=none;top=0;left=0;bottom=0;right=0;align=left;spacingLeft=6;overflow=hidden;spacing=2;spacingBottom=0;spacingTop=0;fontStyle=0" parent="R4HA2hypXB2nSjlr7d-l-1" vertex="1">
          <mxGeometry x="33" width="127" height="25" as="geometry">
            <mxRectangle width="127" height="25" as="alternateBounds" />
          </mxGeometry>
        </mxCell>
        <mxCell id="H6wV0lY-GphbkO9nDZzQ-21" value="" style="shape=tableRow;horizontal=0;startSize=0;swimlaneHead=0;swimlaneBody=0;fillColor=none;collapsible=0;dropTarget=0;points=[[0,0.5],[1,0.5]];portConstraint=eastwest;top=0;left=0;right=0;bottom=0;" vertex="1" parent="W24L-8EDtj-rmbcyrjGX-290">
          <mxGeometry y="191" width="160" height="25" as="geometry" />
        </mxCell>
        <mxCell id="H6wV0lY-GphbkO9nDZzQ-22" value="" style="shape=partialRectangle;connectable=0;fillColor=none;top=0;left=0;bottom=0;right=0;editable=1;overflow=hidden;" vertex="1" parent="H6wV0lY-GphbkO9nDZzQ-21">
          <mxGeometry width="33" height="25" as="geometry">
            <mxRectangle width="33" height="25" as="alternateBounds" />
          </mxGeometry>
        </mxCell>
        <mxCell id="H6wV0lY-GphbkO9nDZzQ-23" value="Email " style="shape=partialRectangle;connectable=0;fillColor=none;top=0;left=0;bottom=0;right=0;align=left;spacingLeft=6;overflow=hidden;spacing=2;spacingBottom=0;spacingTop=0;fontStyle=0" vertex="1" parent="H6wV0lY-GphbkO9nDZzQ-21">
          <mxGeometry x="33" width="127" height="25" as="geometry">
            <mxRectangle width="127" height="25" as="alternateBounds" />
          </mxGeometry>
        </mxCell>
        <mxCell id="H6wV0lY-GphbkO9nDZzQ-24" value="" style="shape=tableRow;horizontal=0;startSize=0;swimlaneHead=0;swimlaneBody=0;fillColor=none;collapsible=0;dropTarget=0;points=[[0,0.5],[1,0.5]];portConstraint=eastwest;top=0;left=0;right=0;bottom=0;" vertex="1" parent="W24L-8EDtj-rmbcyrjGX-290">
          <mxGeometry y="216" width="160" height="25" as="geometry" />
        </mxCell>
        <mxCell id="H6wV0lY-GphbkO9nDZzQ-25" value="" style="shape=partialRectangle;connectable=0;fillColor=none;top=0;left=0;bottom=0;right=0;editable=1;overflow=hidden;" vertex="1" parent="H6wV0lY-GphbkO9nDZzQ-24">
          <mxGeometry width="33" height="25" as="geometry">
            <mxRectangle width="33" height="25" as="alternateBounds" />
          </mxGeometry>
        </mxCell>
        <mxCell id="H6wV0lY-GphbkO9nDZzQ-26" value="Phone" style="shape=partialRectangle;connectable=0;fillColor=none;top=0;left=0;bottom=0;right=0;align=left;spacingLeft=6;overflow=hidden;spacing=2;spacingBottom=0;spacingTop=0;fontStyle=0" vertex="1" parent="H6wV0lY-GphbkO9nDZzQ-24">
          <mxGeometry x="33" width="127" height="25" as="geometry">
            <mxRectangle width="127" height="25" as="alternateBounds" />
          </mxGeometry>
        </mxCell>
        <mxCell id="H6wV0lY-GphbkO9nDZzQ-27" value="" style="shape=tableRow;horizontal=0;startSize=0;swimlaneHead=0;swimlaneBody=0;fillColor=none;collapsible=0;dropTarget=0;points=[[0,0.5],[1,0.5]];portConstraint=eastwest;top=0;left=0;right=0;bottom=0;" vertex="1" parent="W24L-8EDtj-rmbcyrjGX-290">
          <mxGeometry y="241" width="160" height="25" as="geometry" />
        </mxCell>
        <mxCell id="H6wV0lY-GphbkO9nDZzQ-28" value="" style="shape=partialRectangle;connectable=0;fillColor=none;top=0;left=0;bottom=0;right=0;editable=1;overflow=hidden;" vertex="1" parent="H6wV0lY-GphbkO9nDZzQ-27">
          <mxGeometry width="33" height="25" as="geometry">
            <mxRectangle width="33" height="25" as="alternateBounds" />
          </mxGeometry>
        </mxCell>
        <mxCell id="H6wV0lY-GphbkO9nDZzQ-29" value="Created At" style="shape=partialRectangle;connectable=0;fillColor=none;top=0;left=0;bottom=0;right=0;align=left;spacingLeft=6;overflow=hidden;spacing=2;spacingBottom=0;spacingTop=0;fontStyle=0" vertex="1" parent="H6wV0lY-GphbkO9nDZzQ-27">
          <mxGeometry x="33" width="127" height="25" as="geometry">
            <mxRectangle width="127" height="25" as="alternateBounds" />
          </mxGeometry>
        </mxCell>
        <mxCell id="W24L-8EDtj-rmbcyrjGX-311" value="Category" style="shape=table;startSize=30;container=1;collapsible=1;childLayout=tableLayout;fixedRows=1;rowLines=0;fontStyle=1;align=center;resizeLast=1;" parent="1" vertex="1">
          <mxGeometry x="1237.5" y="131" width="160" height="120" as="geometry" />
        </mxCell>
        <mxCell id="W24L-8EDtj-rmbcyrjGX-312" value="" style="shape=tableRow;horizontal=0;startSize=0;swimlaneHead=0;swimlaneBody=0;fillColor=none;collapsible=0;dropTarget=0;points=[[0,0.5],[1,0.5]];portConstraint=eastwest;top=0;left=0;right=0;bottom=1;" parent="W24L-8EDtj-rmbcyrjGX-311" vertex="1">
          <mxGeometry y="30" width="160" height="30" as="geometry" />
        </mxCell>
        <mxCell id="W24L-8EDtj-rmbcyrjGX-313" value="PK" style="shape=partialRectangle;connectable=0;fillColor=none;top=0;left=0;bottom=0;right=0;fontStyle=1;overflow=hidden;" parent="W24L-8EDtj-rmbcyrjGX-312" vertex="1">
          <mxGeometry width="30" height="30" as="geometry">
            <mxRectangle width="30" height="30" as="alternateBounds" />
          </mxGeometry>
        </mxCell>
        <mxCell id="W24L-8EDtj-rmbcyrjGX-314" value="Category_ID" style="shape=partialRectangle;connectable=0;fillColor=none;top=0;left=0;bottom=0;right=0;align=left;spacingLeft=6;fontStyle=5;overflow=hidden;" parent="W24L-8EDtj-rmbcyrjGX-312" vertex="1">
          <mxGeometry x="30" width="130" height="30" as="geometry">
            <mxRectangle width="130" height="30" as="alternateBounds" />
          </mxGeometry>
        </mxCell>
        <mxCell id="W24L-8EDtj-rmbcyrjGX-315" value="" style="shape=tableRow;horizontal=0;startSize=0;swimlaneHead=0;swimlaneBody=0;fillColor=none;collapsible=0;dropTarget=0;points=[[0,0.5],[1,0.5]];portConstraint=eastwest;top=0;left=0;right=0;bottom=0;" parent="W24L-8EDtj-rmbcyrjGX-311" vertex="1">
          <mxGeometry y="60" width="160" height="25" as="geometry" />
        </mxCell>
        <mxCell id="W24L-8EDtj-rmbcyrjGX-316" value="" style="shape=partialRectangle;connectable=0;fillColor=none;top=0;left=0;bottom=0;right=0;editable=1;overflow=hidden;" parent="W24L-8EDtj-rmbcyrjGX-315" vertex="1">
          <mxGeometry width="30" height="25" as="geometry">
            <mxRectangle width="30" height="25" as="alternateBounds" />
          </mxGeometry>
        </mxCell>
        <mxCell id="W24L-8EDtj-rmbcyrjGX-317" value="Category Name" style="shape=partialRectangle;connectable=0;fillColor=none;top=0;left=0;bottom=0;right=0;align=left;spacingLeft=6;overflow=hidden;spacing=2;spacingBottom=0;spacingTop=0;" parent="W24L-8EDtj-rmbcyrjGX-315" vertex="1">
          <mxGeometry x="30" width="130" height="25" as="geometry">
            <mxRectangle width="130" height="25" as="alternateBounds" />
          </mxGeometry>
        </mxCell>
        <mxCell id="H6wV0lY-GphbkO9nDZzQ-36" value="" style="shape=tableRow;horizontal=0;startSize=0;swimlaneHead=0;swimlaneBody=0;fillColor=none;collapsible=0;dropTarget=0;points=[[0,0.5],[1,0.5]];portConstraint=eastwest;top=0;left=0;right=0;bottom=0;" vertex="1" parent="W24L-8EDtj-rmbcyrjGX-311">
          <mxGeometry y="85" width="160" height="25" as="geometry" />
        </mxCell>
        <mxCell id="H6wV0lY-GphbkO9nDZzQ-37" value="" style="shape=partialRectangle;connectable=0;fillColor=none;top=0;left=0;bottom=0;right=0;editable=1;overflow=hidden;" vertex="1" parent="H6wV0lY-GphbkO9nDZzQ-36">
          <mxGeometry width="30" height="25" as="geometry">
            <mxRectangle width="30" height="25" as="alternateBounds" />
          </mxGeometry>
        </mxCell>
        <mxCell id="H6wV0lY-GphbkO9nDZzQ-38" value="Description" style="shape=partialRectangle;connectable=0;fillColor=none;top=0;left=0;bottom=0;right=0;align=left;spacingLeft=6;overflow=hidden;spacing=2;spacingBottom=0;spacingTop=0;" vertex="1" parent="H6wV0lY-GphbkO9nDZzQ-36">
          <mxGeometry x="30" width="130" height="25" as="geometry">
            <mxRectangle width="130" height="25" as="alternateBounds" />
          </mxGeometry>
        </mxCell>
        <mxCell id="W24L-8EDtj-rmbcyrjGX-352" value="Address" style="shape=table;startSize=30;container=1;collapsible=1;childLayout=tableLayout;fixedRows=1;rowLines=0;fontStyle=1;align=center;resizeLast=1;" parent="1" vertex="1">
          <mxGeometry x="257" y="131" width="169" height="170" as="geometry">
            <mxRectangle x="549" y="245" width="80" height="30" as="alternateBounds" />
          </mxGeometry>
        </mxCell>
        <mxCell id="W24L-8EDtj-rmbcyrjGX-353" value="" style="shape=tableRow;horizontal=0;startSize=0;swimlaneHead=0;swimlaneBody=0;fillColor=none;collapsible=0;dropTarget=0;points=[[0,0.5],[1,0.5]];portConstraint=eastwest;top=0;left=0;right=0;bottom=1;" parent="W24L-8EDtj-rmbcyrjGX-352" vertex="1">
          <mxGeometry y="30" width="169" height="30" as="geometry" />
        </mxCell>
        <mxCell id="W24L-8EDtj-rmbcyrjGX-354" value="PK" style="shape=partialRectangle;connectable=0;fillColor=none;top=0;left=0;bottom=0;right=0;fontStyle=1;overflow=hidden;" parent="W24L-8EDtj-rmbcyrjGX-353" vertex="1">
          <mxGeometry width="30" height="30" as="geometry">
            <mxRectangle width="30" height="30" as="alternateBounds" />
          </mxGeometry>
        </mxCell>
        <mxCell id="W24L-8EDtj-rmbcyrjGX-355" value="address_id" style="shape=partialRectangle;connectable=0;fillColor=none;top=0;left=0;bottom=0;right=0;align=left;spacingLeft=6;fontStyle=5;overflow=hidden;" parent="W24L-8EDtj-rmbcyrjGX-353" vertex="1">
          <mxGeometry x="30" width="139" height="30" as="geometry">
            <mxRectangle width="139" height="30" as="alternateBounds" />
          </mxGeometry>
        </mxCell>
        <mxCell id="W24L-8EDtj-rmbcyrjGX-356" value="" style="shape=tableRow;horizontal=0;startSize=0;swimlaneHead=0;swimlaneBody=0;fillColor=none;collapsible=0;dropTarget=0;points=[[0,0.5],[1,0.5]];portConstraint=eastwest;top=0;left=0;right=0;bottom=0;" parent="W24L-8EDtj-rmbcyrjGX-352" vertex="1">
          <mxGeometry y="60" width="169" height="25" as="geometry" />
        </mxCell>
        <mxCell id="W24L-8EDtj-rmbcyrjGX-357" value="" style="shape=partialRectangle;connectable=0;fillColor=none;top=0;left=0;bottom=0;right=0;editable=1;overflow=hidden;" parent="W24L-8EDtj-rmbcyrjGX-356" vertex="1">
          <mxGeometry width="30" height="25" as="geometry">
            <mxRectangle width="30" height="25" as="alternateBounds" />
          </mxGeometry>
        </mxCell>
        <mxCell id="W24L-8EDtj-rmbcyrjGX-358" value="Street" style="shape=partialRectangle;connectable=0;fillColor=none;top=0;left=0;bottom=0;right=0;align=left;spacingLeft=6;overflow=hidden;spacing=2;spacingBottom=0;spacingTop=0;" parent="W24L-8EDtj-rmbcyrjGX-356" vertex="1">
          <mxGeometry x="30" width="139" height="25" as="geometry">
            <mxRectangle width="139" height="25" as="alternateBounds" />
          </mxGeometry>
        </mxCell>
        <mxCell id="W24L-8EDtj-rmbcyrjGX-359" value="" style="shape=tableRow;horizontal=0;startSize=0;swimlaneHead=0;swimlaneBody=0;fillColor=none;collapsible=0;dropTarget=0;points=[[0,0.5],[1,0.5]];portConstraint=eastwest;top=0;left=0;right=0;bottom=0;" parent="W24L-8EDtj-rmbcyrjGX-352" vertex="1">
          <mxGeometry y="85" width="169" height="25" as="geometry" />
        </mxCell>
        <mxCell id="W24L-8EDtj-rmbcyrjGX-360" value="" style="shape=partialRectangle;connectable=0;fillColor=none;top=0;left=0;bottom=0;right=0;editable=1;overflow=hidden;" parent="W24L-8EDtj-rmbcyrjGX-359" vertex="1">
          <mxGeometry width="30" height="25" as="geometry">
            <mxRectangle width="30" height="25" as="alternateBounds" />
          </mxGeometry>
        </mxCell>
        <mxCell id="W24L-8EDtj-rmbcyrjGX-361" value="City" style="shape=partialRectangle;connectable=0;fillColor=none;top=0;left=0;bottom=0;right=0;align=left;spacingLeft=6;overflow=hidden;" parent="W24L-8EDtj-rmbcyrjGX-359" vertex="1">
          <mxGeometry x="30" width="139" height="25" as="geometry">
            <mxRectangle width="139" height="25" as="alternateBounds" />
          </mxGeometry>
        </mxCell>
        <mxCell id="H6wV0lY-GphbkO9nDZzQ-7" value="" style="shape=tableRow;horizontal=0;startSize=0;swimlaneHead=0;swimlaneBody=0;fillColor=none;collapsible=0;dropTarget=0;points=[[0,0.5],[1,0.5]];portConstraint=eastwest;top=0;left=0;right=0;bottom=0;" vertex="1" parent="W24L-8EDtj-rmbcyrjGX-352">
          <mxGeometry y="110" width="169" height="20" as="geometry" />
        </mxCell>
        <mxCell id="H6wV0lY-GphbkO9nDZzQ-8" value="" style="shape=partialRectangle;connectable=0;fillColor=none;top=0;left=0;bottom=0;right=0;editable=1;overflow=hidden;" vertex="1" parent="H6wV0lY-GphbkO9nDZzQ-7">
          <mxGeometry width="30" height="20" as="geometry">
            <mxRectangle width="30" height="20" as="alternateBounds" />
          </mxGeometry>
        </mxCell>
        <mxCell id="H6wV0lY-GphbkO9nDZzQ-9" value="State" style="shape=partialRectangle;connectable=0;fillColor=none;top=0;left=0;bottom=0;right=0;align=left;spacingLeft=6;overflow=hidden;" vertex="1" parent="H6wV0lY-GphbkO9nDZzQ-7">
          <mxGeometry x="30" width="139" height="20" as="geometry">
            <mxRectangle width="139" height="20" as="alternateBounds" />
          </mxGeometry>
        </mxCell>
        <mxCell id="H6wV0lY-GphbkO9nDZzQ-10" value="" style="shape=tableRow;horizontal=0;startSize=0;swimlaneHead=0;swimlaneBody=0;fillColor=none;collapsible=0;dropTarget=0;points=[[0,0.5],[1,0.5]];portConstraint=eastwest;top=0;left=0;right=0;bottom=0;" vertex="1" parent="W24L-8EDtj-rmbcyrjGX-352">
          <mxGeometry y="130" width="169" height="20" as="geometry" />
        </mxCell>
        <mxCell id="H6wV0lY-GphbkO9nDZzQ-11" value="" style="shape=partialRectangle;connectable=0;fillColor=none;top=0;left=0;bottom=0;right=0;editable=1;overflow=hidden;" vertex="1" parent="H6wV0lY-GphbkO9nDZzQ-10">
          <mxGeometry width="30" height="20" as="geometry">
            <mxRectangle width="30" height="20" as="alternateBounds" />
          </mxGeometry>
        </mxCell>
        <mxCell id="H6wV0lY-GphbkO9nDZzQ-12" value="Zip Code" style="shape=partialRectangle;connectable=0;fillColor=none;top=0;left=0;bottom=0;right=0;align=left;spacingLeft=6;overflow=hidden;" vertex="1" parent="H6wV0lY-GphbkO9nDZzQ-10">
          <mxGeometry x="30" width="139" height="20" as="geometry">
            <mxRectangle width="139" height="20" as="alternateBounds" />
          </mxGeometry>
        </mxCell>
        <mxCell id="W24L-8EDtj-rmbcyrjGX-362" value="" style="shape=tableRow;horizontal=0;startSize=0;swimlaneHead=0;swimlaneBody=0;fillColor=none;collapsible=0;dropTarget=0;points=[[0,0.5],[1,0.5]];portConstraint=eastwest;top=0;left=0;right=0;bottom=0;" parent="W24L-8EDtj-rmbcyrjGX-352" vertex="1">
          <mxGeometry y="150" width="169" height="20" as="geometry" />
        </mxCell>
        <mxCell id="W24L-8EDtj-rmbcyrjGX-363" value="" style="shape=partialRectangle;connectable=0;fillColor=none;top=0;left=0;bottom=0;right=0;editable=1;overflow=hidden;" parent="W24L-8EDtj-rmbcyrjGX-362" vertex="1">
          <mxGeometry width="30" height="20" as="geometry">
            <mxRectangle width="30" height="20" as="alternateBounds" />
          </mxGeometry>
        </mxCell>
        <mxCell id="W24L-8EDtj-rmbcyrjGX-364" value="Country" style="shape=partialRectangle;connectable=0;fillColor=none;top=0;left=0;bottom=0;right=0;align=left;spacingLeft=6;overflow=hidden;" parent="W24L-8EDtj-rmbcyrjGX-362" vertex="1">
          <mxGeometry x="30" width="139" height="20" as="geometry">
            <mxRectangle width="139" height="20" as="alternateBounds" />
          </mxGeometry>
        </mxCell>
        <mxCell id="W24L-8EDtj-rmbcyrjGX-375" value="Product" style="shape=table;startSize=30;container=1;collapsible=1;childLayout=tableLayout;fixedRows=1;rowLines=0;fontStyle=1;align=center;resizeLast=1;" parent="1" vertex="1">
          <mxGeometry x="908.5" y="185.5" width="160" height="210" as="geometry" />
        </mxCell>
        <mxCell id="W24L-8EDtj-rmbcyrjGX-376" value="" style="shape=tableRow;horizontal=0;startSize=0;swimlaneHead=0;swimlaneBody=0;fillColor=none;collapsible=0;dropTarget=0;points=[[0,0.5],[1,0.5]];portConstraint=eastwest;top=0;left=0;right=0;bottom=1;" parent="W24L-8EDtj-rmbcyrjGX-375" vertex="1">
          <mxGeometry y="30" width="160" height="30" as="geometry" />
        </mxCell>
        <mxCell id="W24L-8EDtj-rmbcyrjGX-377" value="PK" style="shape=partialRectangle;connectable=0;fillColor=none;top=0;left=0;bottom=0;right=0;fontStyle=1;overflow=hidden;" parent="W24L-8EDtj-rmbcyrjGX-376" vertex="1">
          <mxGeometry width="30" height="30" as="geometry">
            <mxRectangle width="30" height="30" as="alternateBounds" />
          </mxGeometry>
        </mxCell>
        <mxCell id="W24L-8EDtj-rmbcyrjGX-378" value="Product_Id" style="shape=partialRectangle;connectable=0;fillColor=none;top=0;left=0;bottom=0;right=0;align=left;spacingLeft=6;fontStyle=5;overflow=hidden;" parent="W24L-8EDtj-rmbcyrjGX-376" vertex="1">
          <mxGeometry x="30" width="130" height="30" as="geometry">
            <mxRectangle width="130" height="30" as="alternateBounds" />
          </mxGeometry>
        </mxCell>
        <mxCell id="W24L-8EDtj-rmbcyrjGX-379" value="" style="shape=tableRow;horizontal=0;startSize=0;swimlaneHead=0;swimlaneBody=0;fillColor=none;collapsible=0;dropTarget=0;points=[[0,0.5],[1,0.5]];portConstraint=eastwest;top=0;left=0;right=0;bottom=0;" parent="W24L-8EDtj-rmbcyrjGX-375" vertex="1">
          <mxGeometry y="60" width="160" height="25" as="geometry" />
        </mxCell>
        <mxCell id="W24L-8EDtj-rmbcyrjGX-380" value="" style="shape=partialRectangle;connectable=0;fillColor=none;top=0;left=0;bottom=0;right=0;editable=1;overflow=hidden;" parent="W24L-8EDtj-rmbcyrjGX-379" vertex="1">
          <mxGeometry width="30" height="25" as="geometry">
            <mxRectangle width="30" height="25" as="alternateBounds" />
          </mxGeometry>
        </mxCell>
        <mxCell id="W24L-8EDtj-rmbcyrjGX-381" value="Product Name" style="shape=partialRectangle;connectable=0;fillColor=none;top=0;left=0;bottom=0;right=0;align=left;spacingLeft=6;overflow=hidden;spacing=2;spacingBottom=0;spacingTop=0;" parent="W24L-8EDtj-rmbcyrjGX-379" vertex="1">
          <mxGeometry x="30" width="130" height="25" as="geometry">
            <mxRectangle width="130" height="25" as="alternateBounds" />
          </mxGeometry>
        </mxCell>
        <mxCell id="W24L-8EDtj-rmbcyrjGX-382" value="" style="shape=tableRow;horizontal=0;startSize=0;swimlaneHead=0;swimlaneBody=0;fillColor=none;collapsible=0;dropTarget=0;points=[[0,0.5],[1,0.5]];portConstraint=eastwest;top=0;left=0;right=0;bottom=0;" parent="W24L-8EDtj-rmbcyrjGX-375" vertex="1">
          <mxGeometry y="85" width="160" height="25" as="geometry" />
        </mxCell>
        <mxCell id="W24L-8EDtj-rmbcyrjGX-383" value="" style="shape=partialRectangle;connectable=0;fillColor=none;top=0;left=0;bottom=0;right=0;editable=1;overflow=hidden;" parent="W24L-8EDtj-rmbcyrjGX-382" vertex="1">
          <mxGeometry width="30" height="25" as="geometry">
            <mxRectangle width="30" height="25" as="alternateBounds" />
          </mxGeometry>
        </mxCell>
        <mxCell id="W24L-8EDtj-rmbcyrjGX-384" value="Description" style="shape=partialRectangle;connectable=0;fillColor=none;top=0;left=0;bottom=0;right=0;align=left;spacingLeft=6;overflow=hidden;" parent="W24L-8EDtj-rmbcyrjGX-382" vertex="1">
          <mxGeometry x="30" width="130" height="25" as="geometry">
            <mxRectangle width="130" height="25" as="alternateBounds" />
          </mxGeometry>
        </mxCell>
        <mxCell id="W24L-8EDtj-rmbcyrjGX-385" value="" style="shape=tableRow;horizontal=0;startSize=0;swimlaneHead=0;swimlaneBody=0;fillColor=none;collapsible=0;dropTarget=0;points=[[0,0.5],[1,0.5]];portConstraint=eastwest;top=0;left=0;right=0;bottom=0;" parent="W24L-8EDtj-rmbcyrjGX-375" vertex="1">
          <mxGeometry y="110" width="160" height="25" as="geometry" />
        </mxCell>
        <mxCell id="W24L-8EDtj-rmbcyrjGX-386" value="" style="shape=partialRectangle;connectable=0;fillColor=none;top=0;left=0;bottom=0;right=0;editable=1;overflow=hidden;" parent="W24L-8EDtj-rmbcyrjGX-385" vertex="1">
          <mxGeometry width="30" height="25" as="geometry">
            <mxRectangle width="30" height="25" as="alternateBounds" />
          </mxGeometry>
        </mxCell>
        <mxCell id="W24L-8EDtj-rmbcyrjGX-387" value="Price" style="shape=partialRectangle;connectable=0;fillColor=none;top=0;left=0;bottom=0;right=0;align=left;spacingLeft=6;overflow=hidden;" parent="W24L-8EDtj-rmbcyrjGX-385" vertex="1">
          <mxGeometry x="30" width="130" height="25" as="geometry">
            <mxRectangle width="130" height="25" as="alternateBounds" />
          </mxGeometry>
        </mxCell>
        <mxCell id="W24L-8EDtj-rmbcyrjGX-388" value="" style="shape=tableRow;horizontal=0;startSize=0;swimlaneHead=0;swimlaneBody=0;fillColor=none;collapsible=0;dropTarget=0;points=[[0,0.5],[1,0.5]];portConstraint=eastwest;top=0;left=0;right=0;bottom=0;" parent="W24L-8EDtj-rmbcyrjGX-375" vertex="1">
          <mxGeometry y="135" width="160" height="25" as="geometry" />
        </mxCell>
        <mxCell id="W24L-8EDtj-rmbcyrjGX-389" value="" style="shape=partialRectangle;connectable=0;fillColor=none;top=0;left=0;bottom=0;right=0;editable=1;overflow=hidden;" parent="W24L-8EDtj-rmbcyrjGX-388" vertex="1">
          <mxGeometry width="30" height="25" as="geometry">
            <mxRectangle width="30" height="25" as="alternateBounds" />
          </mxGeometry>
        </mxCell>
        <mxCell id="W24L-8EDtj-rmbcyrjGX-390" value="Stock" style="shape=partialRectangle;connectable=0;fillColor=none;top=0;left=0;bottom=0;right=0;align=left;spacingLeft=6;overflow=hidden;" parent="W24L-8EDtj-rmbcyrjGX-388" vertex="1">
          <mxGeometry x="30" width="130" height="25" as="geometry">
            <mxRectangle width="130" height="25" as="alternateBounds" />
          </mxGeometry>
        </mxCell>
        <mxCell id="W24L-8EDtj-rmbcyrjGX-391" value="" style="shape=tableRow;horizontal=0;startSize=0;swimlaneHead=0;swimlaneBody=0;fillColor=none;collapsible=0;dropTarget=0;points=[[0,0.5],[1,0.5]];portConstraint=eastwest;top=0;left=0;right=0;bottom=0;" parent="W24L-8EDtj-rmbcyrjGX-375" vertex="1">
          <mxGeometry y="160" width="160" height="25" as="geometry" />
        </mxCell>
        <mxCell id="W24L-8EDtj-rmbcyrjGX-392" value="FK" style="shape=partialRectangle;connectable=0;fillColor=none;top=0;left=0;bottom=0;right=0;editable=1;overflow=hidden;" parent="W24L-8EDtj-rmbcyrjGX-391" vertex="1">
          <mxGeometry width="30" height="25" as="geometry">
            <mxRectangle width="30" height="25" as="alternateBounds" />
          </mxGeometry>
        </mxCell>
        <mxCell id="W24L-8EDtj-rmbcyrjGX-393" value="Category_ID" style="shape=partialRectangle;connectable=0;fillColor=none;top=0;left=0;bottom=0;right=0;align=left;spacingLeft=6;overflow=hidden;" parent="W24L-8EDtj-rmbcyrjGX-391" vertex="1">
          <mxGeometry x="30" width="130" height="25" as="geometry">
            <mxRectangle width="130" height="25" as="alternateBounds" />
          </mxGeometry>
        </mxCell>
        <mxCell id="W24L-8EDtj-rmbcyrjGX-394" value="" style="shape=tableRow;horizontal=0;startSize=0;swimlaneHead=0;swimlaneBody=0;fillColor=none;collapsible=0;dropTarget=0;points=[[0,0.5],[1,0.5]];portConstraint=eastwest;top=0;left=0;right=0;bottom=0;" parent="W24L-8EDtj-rmbcyrjGX-375" vertex="1">
          <mxGeometry y="185" width="160" height="25" as="geometry" />
        </mxCell>
        <mxCell id="W24L-8EDtj-rmbcyrjGX-395" value="" style="shape=partialRectangle;connectable=0;fillColor=none;top=0;left=0;bottom=0;right=0;editable=1;overflow=hidden;" parent="W24L-8EDtj-rmbcyrjGX-394" vertex="1">
          <mxGeometry width="30" height="25" as="geometry">
            <mxRectangle width="30" height="25" as="alternateBounds" />
          </mxGeometry>
        </mxCell>
        <mxCell id="W24L-8EDtj-rmbcyrjGX-396" value="Created At" style="shape=partialRectangle;connectable=0;fillColor=none;top=0;left=0;bottom=0;right=0;align=left;spacingLeft=6;overflow=hidden;" parent="W24L-8EDtj-rmbcyrjGX-394" vertex="1">
          <mxGeometry x="30" width="130" height="25" as="geometry">
            <mxRectangle width="130" height="25" as="alternateBounds" />
          </mxGeometry>
        </mxCell>
        <mxCell id="W24L-8EDtj-rmbcyrjGX-456" value="&lt;div&gt;is located at&lt;/div&gt;" style="text;html=1;strokeColor=none;fillColor=none;align=center;verticalAlign=middle;whiteSpace=wrap;rounded=0;" parent="1" vertex="1">
          <mxGeometry x="423.5" y="145.5" width="80" height="20" as="geometry" />
        </mxCell>
        <mxCell id="W24L-8EDtj-rmbcyrjGX-457" value="locates" style="text;html=1;strokeColor=none;fillColor=none;align=center;verticalAlign=middle;whiteSpace=wrap;rounded=0;" parent="1" vertex="1">
          <mxGeometry x="562.5" y="145.5" width="34" height="20" as="geometry" />
        </mxCell>
        <mxCell id="H6wV0lY-GphbkO9nDZzQ-4" value="" style="shape=tableRow;horizontal=0;startSize=0;swimlaneHead=0;swimlaneBody=0;fillColor=none;collapsible=0;dropTarget=0;points=[[0,0.5],[1,0.5]];portConstraint=eastwest;top=0;left=0;right=0;bottom=0;" vertex="1" parent="1">
          <mxGeometry x="317.5" y="325.5" width="169" height="20" as="geometry" />
        </mxCell>
        <mxCell id="H6wV0lY-GphbkO9nDZzQ-33" style="edgeStyle=orthogonalEdgeStyle;rounded=0;orthogonalLoop=1;jettySize=auto;html=1;exitX=1;exitY=0.5;exitDx=0;exitDy=0;endArrow=ERoneToMany;endFill=0;startArrow=ERmandOne;startFill=0;" edge="1" parent="1" source="W24L-8EDtj-rmbcyrjGX-353" target="W24L-8EDtj-rmbcyrjGX-294">
          <mxGeometry relative="1" as="geometry">
            <Array as="points">
              <mxPoint x="567.5" y="175.5" />
              <mxPoint x="567.5" y="175.5" />
            </Array>
          </mxGeometry>
        </mxCell>
        <mxCell id="H6wV0lY-GphbkO9nDZzQ-41" style="edgeStyle=orthogonalEdgeStyle;rounded=0;orthogonalLoop=1;jettySize=auto;html=1;startArrow=ERoneToMany;startFill=0;endArrow=ERmandOne;endFill=0;" edge="1" parent="1" source="W24L-8EDtj-rmbcyrjGX-391" target="W24L-8EDtj-rmbcyrjGX-312">
          <mxGeometry relative="1" as="geometry">
            <mxPoint x="1197.5" y="345.5" as="sourcePoint" />
          </mxGeometry>
        </mxCell>
        <mxCell id="H6wV0lY-GphbkO9nDZzQ-42" value="belongs to" style="text;html=1;strokeColor=none;fillColor=none;align=center;verticalAlign=middle;whiteSpace=wrap;rounded=0;" vertex="1" parent="1">
          <mxGeometry x="1077.5" y="325.5" width="70" height="20" as="geometry" />
        </mxCell>
        <mxCell id="H6wV0lY-GphbkO9nDZzQ-43" value="includes" style="text;html=1;strokeColor=none;fillColor=none;align=center;verticalAlign=middle;whiteSpace=wrap;rounded=0;" vertex="1" parent="1">
          <mxGeometry x="1157.5" y="155.5" width="70" height="20" as="geometry" />
        </mxCell>
        <mxCell id="H6wV0lY-GphbkO9nDZzQ-59" value="Order Item" style="shape=table;startSize=30;container=1;collapsible=1;childLayout=tableLayout;fixedRows=1;rowLines=0;fontStyle=1;align=center;resizeLast=1;movable=1;resizable=1;rotatable=1;deletable=1;editable=1;locked=0;connectable=1;" vertex="1" parent="1">
          <mxGeometry x="1227.5" y="429" width="160" height="195" as="geometry" />
        </mxCell>
        <mxCell id="H6wV0lY-GphbkO9nDZzQ-60" value="" style="shape=tableRow;horizontal=0;startSize=0;swimlaneHead=0;swimlaneBody=0;fillColor=none;collapsible=0;dropTarget=0;points=[[0,0.5],[1,0.5]];portConstraint=eastwest;top=0;left=0;right=0;bottom=1;movable=1;resizable=1;rotatable=1;deletable=1;editable=1;locked=0;connectable=1;" vertex="1" parent="H6wV0lY-GphbkO9nDZzQ-59">
          <mxGeometry y="30" width="160" height="30" as="geometry" />
        </mxCell>
        <mxCell id="H6wV0lY-GphbkO9nDZzQ-61" value="PK" style="shape=partialRectangle;connectable=1;fillColor=none;top=0;left=0;bottom=0;right=0;fontStyle=1;overflow=hidden;movable=1;resizable=1;rotatable=1;deletable=1;editable=1;locked=0;" vertex="1" parent="H6wV0lY-GphbkO9nDZzQ-60">
          <mxGeometry width="30" height="30" as="geometry">
            <mxRectangle width="30" height="30" as="alternateBounds" />
          </mxGeometry>
        </mxCell>
        <mxCell id="H6wV0lY-GphbkO9nDZzQ-62" value="Order_Item_ID" style="shape=partialRectangle;connectable=1;fillColor=none;top=0;left=0;bottom=0;right=0;align=left;spacingLeft=6;fontStyle=5;overflow=hidden;movable=1;resizable=1;rotatable=1;deletable=1;editable=1;locked=0;" vertex="1" parent="H6wV0lY-GphbkO9nDZzQ-60">
          <mxGeometry x="30" width="130" height="30" as="geometry">
            <mxRectangle width="130" height="30" as="alternateBounds" />
          </mxGeometry>
        </mxCell>
        <mxCell id="H6wV0lY-GphbkO9nDZzQ-63" value="" style="shape=tableRow;horizontal=0;startSize=0;swimlaneHead=0;swimlaneBody=0;fillColor=none;collapsible=0;dropTarget=0;points=[[0,0.5],[1,0.5]];portConstraint=eastwest;top=0;left=0;right=0;bottom=0;movable=1;resizable=1;rotatable=1;deletable=1;editable=1;locked=0;connectable=1;" vertex="1" parent="H6wV0lY-GphbkO9nDZzQ-59">
          <mxGeometry y="60" width="160" height="25" as="geometry" />
        </mxCell>
        <mxCell id="H6wV0lY-GphbkO9nDZzQ-64" value="FK" style="shape=partialRectangle;connectable=1;fillColor=none;top=0;left=0;bottom=0;right=0;editable=1;overflow=hidden;movable=1;resizable=1;rotatable=1;deletable=1;locked=0;" vertex="1" parent="H6wV0lY-GphbkO9nDZzQ-63">
          <mxGeometry width="30" height="25" as="geometry">
            <mxRectangle width="30" height="25" as="alternateBounds" />
          </mxGeometry>
        </mxCell>
        <mxCell id="H6wV0lY-GphbkO9nDZzQ-65" value="Product_ID" style="shape=partialRectangle;connectable=1;fillColor=none;top=0;left=0;bottom=0;right=0;align=left;spacingLeft=6;overflow=hidden;spacing=2;spacingBottom=0;spacingTop=0;movable=1;resizable=1;rotatable=1;deletable=1;editable=1;locked=0;" vertex="1" parent="H6wV0lY-GphbkO9nDZzQ-63">
          <mxGeometry x="30" width="130" height="25" as="geometry">
            <mxRectangle width="130" height="25" as="alternateBounds" />
          </mxGeometry>
        </mxCell>
        <mxCell id="H6wV0lY-GphbkO9nDZzQ-66" value="" style="shape=tableRow;horizontal=0;startSize=0;swimlaneHead=0;swimlaneBody=0;fillColor=none;collapsible=0;dropTarget=0;points=[[0,0.5],[1,0.5]];portConstraint=eastwest;top=0;left=0;right=0;bottom=0;movable=1;resizable=1;rotatable=1;deletable=1;editable=1;locked=0;connectable=1;" vertex="1" parent="H6wV0lY-GphbkO9nDZzQ-59">
          <mxGeometry y="85" width="160" height="25" as="geometry" />
        </mxCell>
        <mxCell id="H6wV0lY-GphbkO9nDZzQ-67" value="FK" style="shape=partialRectangle;connectable=1;fillColor=none;top=0;left=0;bottom=0;right=0;editable=1;overflow=hidden;movable=1;resizable=1;rotatable=1;deletable=1;locked=0;" vertex="1" parent="H6wV0lY-GphbkO9nDZzQ-66">
          <mxGeometry width="30" height="25" as="geometry">
            <mxRectangle width="30" height="25" as="alternateBounds" />
          </mxGeometry>
        </mxCell>
        <mxCell id="H6wV0lY-GphbkO9nDZzQ-68" value="Order_ID" style="shape=partialRectangle;connectable=1;fillColor=none;top=0;left=0;bottom=0;right=0;align=left;spacingLeft=6;overflow=hidden;movable=1;resizable=1;rotatable=1;deletable=1;editable=1;locked=0;" vertex="1" parent="H6wV0lY-GphbkO9nDZzQ-66">
          <mxGeometry x="30" width="130" height="25" as="geometry">
            <mxRectangle width="130" height="25" as="alternateBounds" />
          </mxGeometry>
        </mxCell>
        <mxCell id="H6wV0lY-GphbkO9nDZzQ-75" value="" style="shape=tableRow;horizontal=0;startSize=0;swimlaneHead=0;swimlaneBody=0;fillColor=none;collapsible=0;dropTarget=0;points=[[0,0.5],[1,0.5]];portConstraint=eastwest;top=0;left=0;right=0;bottom=0;movable=1;resizable=1;rotatable=1;deletable=1;editable=1;locked=0;connectable=1;" vertex="1" parent="H6wV0lY-GphbkO9nDZzQ-59">
          <mxGeometry y="110" width="160" height="25" as="geometry" />
        </mxCell>
        <mxCell id="H6wV0lY-GphbkO9nDZzQ-76" value="" style="shape=partialRectangle;connectable=1;fillColor=none;top=0;left=0;bottom=0;right=0;editable=1;overflow=hidden;movable=1;resizable=1;rotatable=1;deletable=1;locked=0;" vertex="1" parent="H6wV0lY-GphbkO9nDZzQ-75">
          <mxGeometry width="30" height="25" as="geometry">
            <mxRectangle width="30" height="25" as="alternateBounds" />
          </mxGeometry>
        </mxCell>
        <mxCell id="H6wV0lY-GphbkO9nDZzQ-77" value="Quantity" style="shape=partialRectangle;connectable=1;fillColor=none;top=0;left=0;bottom=0;right=0;align=left;spacingLeft=6;overflow=hidden;movable=1;resizable=1;rotatable=1;deletable=1;editable=1;locked=0;" vertex="1" parent="H6wV0lY-GphbkO9nDZzQ-75">
          <mxGeometry x="30" width="130" height="25" as="geometry">
            <mxRectangle width="130" height="25" as="alternateBounds" />
          </mxGeometry>
        </mxCell>
        <mxCell id="H6wV0lY-GphbkO9nDZzQ-69" value="" style="shape=tableRow;horizontal=0;startSize=0;swimlaneHead=0;swimlaneBody=0;fillColor=none;collapsible=0;dropTarget=0;points=[[0,0.5],[1,0.5]];portConstraint=eastwest;top=0;left=0;right=0;bottom=0;movable=1;resizable=1;rotatable=1;deletable=1;editable=1;locked=0;connectable=1;" vertex="1" parent="H6wV0lY-GphbkO9nDZzQ-59">
          <mxGeometry y="135" width="160" height="25" as="geometry" />
        </mxCell>
        <mxCell id="H6wV0lY-GphbkO9nDZzQ-70" value="" style="shape=partialRectangle;connectable=1;fillColor=none;top=0;left=0;bottom=0;right=0;editable=1;overflow=hidden;movable=1;resizable=1;rotatable=1;deletable=1;locked=0;" vertex="1" parent="H6wV0lY-GphbkO9nDZzQ-69">
          <mxGeometry width="30" height="25" as="geometry">
            <mxRectangle width="30" height="25" as="alternateBounds" />
          </mxGeometry>
        </mxCell>
        <mxCell id="H6wV0lY-GphbkO9nDZzQ-71" value="Unit Price" style="shape=partialRectangle;connectable=1;fillColor=none;top=0;left=0;bottom=0;right=0;align=left;spacingLeft=6;overflow=hidden;movable=1;resizable=1;rotatable=1;deletable=1;editable=1;locked=0;" vertex="1" parent="H6wV0lY-GphbkO9nDZzQ-69">
          <mxGeometry x="30" width="130" height="25" as="geometry">
            <mxRectangle width="130" height="25" as="alternateBounds" />
          </mxGeometry>
        </mxCell>
        <mxCell id="H6wV0lY-GphbkO9nDZzQ-72" value="" style="shape=tableRow;horizontal=0;startSize=0;swimlaneHead=0;swimlaneBody=0;fillColor=none;collapsible=0;dropTarget=0;points=[[0,0.5],[1,0.5]];portConstraint=eastwest;top=0;left=0;right=0;bottom=0;movable=1;resizable=1;rotatable=1;deletable=1;editable=1;locked=0;connectable=1;" vertex="1" parent="H6wV0lY-GphbkO9nDZzQ-59">
          <mxGeometry y="160" width="160" height="25" as="geometry" />
        </mxCell>
        <mxCell id="H6wV0lY-GphbkO9nDZzQ-73" value="" style="shape=partialRectangle;connectable=1;fillColor=none;top=0;left=0;bottom=0;right=0;editable=1;overflow=hidden;movable=1;resizable=1;rotatable=1;deletable=1;locked=0;" vertex="1" parent="H6wV0lY-GphbkO9nDZzQ-72">
          <mxGeometry width="30" height="25" as="geometry">
            <mxRectangle width="30" height="25" as="alternateBounds" />
          </mxGeometry>
        </mxCell>
        <mxCell id="H6wV0lY-GphbkO9nDZzQ-74" value="Total Price" style="shape=partialRectangle;connectable=1;fillColor=none;top=0;left=0;bottom=0;right=0;align=left;spacingLeft=6;overflow=hidden;movable=1;resizable=1;rotatable=1;deletable=1;editable=1;locked=0;" vertex="1" parent="H6wV0lY-GphbkO9nDZzQ-72">
          <mxGeometry x="30" width="130" height="25" as="geometry">
            <mxRectangle width="130" height="25" as="alternateBounds" />
          </mxGeometry>
        </mxCell>
        <mxCell id="H6wV0lY-GphbkO9nDZzQ-82" value="contains" style="text;html=1;strokeColor=none;fillColor=none;align=center;verticalAlign=middle;whiteSpace=wrap;rounded=0;" vertex="1" parent="1">
          <mxGeometry x="987.5" y="527.5" width="70" height="20" as="geometry" />
        </mxCell>
        <mxCell id="H6wV0lY-GphbkO9nDZzQ-83" value="is contained in" style="text;html=1;strokeColor=none;fillColor=none;align=center;verticalAlign=middle;whiteSpace=wrap;rounded=0;" vertex="1" parent="1">
          <mxGeometry x="1117.5" y="539.5" width="100" height="20" as="geometry" />
        </mxCell>
        <mxCell id="H6wV0lY-GphbkO9nDZzQ-84" style="edgeStyle=orthogonalEdgeStyle;rounded=0;orthogonalLoop=1;jettySize=auto;html=1;startArrow=ERoneToMany;startFill=0;endArrow=ERmandOne;endFill=0;exitX=0;exitY=0.5;exitDx=0;exitDy=0;entryX=1.008;entryY=0.401;entryDx=0;entryDy=0;entryPerimeter=0;" edge="1" parent="1" source="H6wV0lY-GphbkO9nDZzQ-64" target="W24L-8EDtj-rmbcyrjGX-376">
          <mxGeometry relative="1" as="geometry">
            <mxPoint x="1274.5" y="455.5" as="sourcePoint" />
            <mxPoint x="1087.5" y="225.5" as="targetPoint" />
            <Array as="points">
              <mxPoint x="1167.5" y="501.5" />
              <mxPoint x="1167.5" y="227.5" />
            </Array>
          </mxGeometry>
        </mxCell>
        <mxCell id="H6wV0lY-GphbkO9nDZzQ-85" value="contains" style="text;html=1;strokeColor=none;fillColor=none;align=center;verticalAlign=middle;whiteSpace=wrap;rounded=0;" vertex="1" parent="1">
          <mxGeometry x="1163.5" y="475.5" width="70" height="20" as="geometry" />
        </mxCell>
        <mxCell id="H6wV0lY-GphbkO9nDZzQ-86" value="is part of" style="text;html=1;strokeColor=none;fillColor=none;align=center;verticalAlign=middle;whiteSpace=wrap;rounded=0;" vertex="1" parent="1">
          <mxGeometry x="1077.5" y="206" width="70" height="20" as="geometry" />
        </mxCell>
        <mxCell id="H6wV0lY-GphbkO9nDZzQ-90" style="edgeStyle=orthogonalEdgeStyle;rounded=0;orthogonalLoop=1;jettySize=auto;html=1;exitX=1;exitY=0.5;exitDx=0;exitDy=0;endArrow=ERoneToMany;endFill=0;startArrow=ERmandOne;startFill=0;entryX=0;entryY=0.5;entryDx=0;entryDy=0;" edge="1" parent="1" source="W24L-8EDtj-rmbcyrjGX-77" target="H6wV0lY-GphbkO9nDZzQ-67">
          <mxGeometry relative="1" as="geometry">
            <mxPoint x="979.5" y="586.5" as="sourcePoint" />
            <mxPoint x="1157.5" y="585.5" as="targetPoint" />
            <Array as="points">
              <mxPoint x="1117.5" y="563.5" />
              <mxPoint x="1117.5" y="526.5" />
            </Array>
          </mxGeometry>
        </mxCell>
        <mxCell id="H6wV0lY-GphbkO9nDZzQ-92" style="edgeStyle=orthogonalEdgeStyle;rounded=0;orthogonalLoop=1;jettySize=auto;html=1;exitX=1;exitY=0.5;exitDx=0;exitDy=0;endArrow=ERoneToMany;endFill=0;startArrow=ERmandOne;startFill=0;entryX=0;entryY=0.5;entryDx=0;entryDy=0;" edge="1" parent="1" source="W24L-8EDtj-rmbcyrjGX-294" target="W24L-8EDtj-rmbcyrjGX-79">
          <mxGeometry relative="1" as="geometry">
            <mxPoint x="612.5" y="476.5" as="sourcePoint" />
            <mxPoint x="790.5" y="475.5" as="targetPoint" />
            <Array as="points">
              <mxPoint x="827.5" y="172.5" />
              <mxPoint x="827.5" y="475.5" />
              <mxPoint x="764.5" y="475.5" />
              <mxPoint x="764.5" y="591.5" />
            </Array>
          </mxGeometry>
        </mxCell>
        <mxCell id="H6wV0lY-GphbkO9nDZzQ-93" value="Places" style="text;html=1;strokeColor=none;fillColor=none;align=center;verticalAlign=middle;whiteSpace=wrap;rounded=0;" vertex="1" parent="1">
          <mxGeometry x="773.5" y="145.5" width="34" height="20" as="geometry" />
        </mxCell>
        <mxCell id="H6wV0lY-GphbkO9nDZzQ-94" value="is placed by" style="text;html=1;strokeColor=none;fillColor=none;align=center;verticalAlign=middle;whiteSpace=wrap;rounded=0;" vertex="1" parent="1">
          <mxGeometry x="773.5" y="559.5" width="34" height="20" as="geometry" />
        </mxCell>
        <mxCell id="H6wV0lY-GphbkO9nDZzQ-95" value="Payment" style="shape=table;startSize=30;container=1;collapsible=1;childLayout=tableLayout;fixedRows=1;rowLines=0;fontStyle=1;align=center;resizeLast=1;movable=1;resizable=1;rotatable=1;deletable=1;editable=1;locked=0;connectable=1;" vertex="1" parent="1">
          <mxGeometry x="596.5" y="740" width="160" height="170" as="geometry" />
        </mxCell>
        <mxCell id="H6wV0lY-GphbkO9nDZzQ-96" value="" style="shape=tableRow;horizontal=0;startSize=0;swimlaneHead=0;swimlaneBody=0;fillColor=none;collapsible=0;dropTarget=0;points=[[0,0.5],[1,0.5]];portConstraint=eastwest;top=0;left=0;right=0;bottom=1;movable=1;resizable=1;rotatable=1;deletable=1;editable=1;locked=0;connectable=1;" vertex="1" parent="H6wV0lY-GphbkO9nDZzQ-95">
          <mxGeometry y="30" width="160" height="30" as="geometry" />
        </mxCell>
        <mxCell id="H6wV0lY-GphbkO9nDZzQ-97" value="PK" style="shape=partialRectangle;connectable=1;fillColor=none;top=0;left=0;bottom=0;right=0;fontStyle=1;overflow=hidden;movable=1;resizable=1;rotatable=1;deletable=1;editable=1;locked=0;" vertex="1" parent="H6wV0lY-GphbkO9nDZzQ-96">
          <mxGeometry width="30" height="30" as="geometry">
            <mxRectangle width="30" height="30" as="alternateBounds" />
          </mxGeometry>
        </mxCell>
        <mxCell id="H6wV0lY-GphbkO9nDZzQ-98" value="Payment_ID" style="shape=partialRectangle;connectable=1;fillColor=none;top=0;left=0;bottom=0;right=0;align=left;spacingLeft=6;fontStyle=5;overflow=hidden;movable=1;resizable=1;rotatable=1;deletable=1;editable=1;locked=0;" vertex="1" parent="H6wV0lY-GphbkO9nDZzQ-96">
          <mxGeometry x="30" width="130" height="30" as="geometry">
            <mxRectangle width="130" height="30" as="alternateBounds" />
          </mxGeometry>
        </mxCell>
        <mxCell id="H6wV0lY-GphbkO9nDZzQ-99" value="" style="shape=tableRow;horizontal=0;startSize=0;swimlaneHead=0;swimlaneBody=0;fillColor=none;collapsible=0;dropTarget=0;points=[[0,0.5],[1,0.5]];portConstraint=eastwest;top=0;left=0;right=0;bottom=0;movable=1;resizable=1;rotatable=1;deletable=1;editable=1;locked=0;connectable=1;" vertex="1" parent="H6wV0lY-GphbkO9nDZzQ-95">
          <mxGeometry y="60" width="160" height="25" as="geometry" />
        </mxCell>
        <mxCell id="H6wV0lY-GphbkO9nDZzQ-100" value="FK" style="shape=partialRectangle;connectable=1;fillColor=none;top=0;left=0;bottom=0;right=0;editable=1;overflow=hidden;movable=1;resizable=1;rotatable=1;deletable=1;locked=0;" vertex="1" parent="H6wV0lY-GphbkO9nDZzQ-99">
          <mxGeometry width="30" height="25" as="geometry">
            <mxRectangle width="30" height="25" as="alternateBounds" />
          </mxGeometry>
        </mxCell>
        <mxCell id="H6wV0lY-GphbkO9nDZzQ-101" value="Order_ID" style="shape=partialRectangle;connectable=1;fillColor=none;top=0;left=0;bottom=0;right=0;align=left;spacingLeft=6;overflow=hidden;spacing=2;spacingBottom=0;spacingTop=0;movable=1;resizable=1;rotatable=1;deletable=1;editable=1;locked=0;" vertex="1" parent="H6wV0lY-GphbkO9nDZzQ-99">
          <mxGeometry x="30" width="130" height="25" as="geometry">
            <mxRectangle width="130" height="25" as="alternateBounds" />
          </mxGeometry>
        </mxCell>
        <mxCell id="H6wV0lY-GphbkO9nDZzQ-102" value="" style="shape=tableRow;horizontal=0;startSize=0;swimlaneHead=0;swimlaneBody=0;fillColor=none;collapsible=0;dropTarget=0;points=[[0,0.5],[1,0.5]];portConstraint=eastwest;top=0;left=0;right=0;bottom=0;movable=1;resizable=1;rotatable=1;deletable=1;editable=1;locked=0;connectable=1;" vertex="1" parent="H6wV0lY-GphbkO9nDZzQ-95">
          <mxGeometry y="85" width="160" height="25" as="geometry" />
        </mxCell>
        <mxCell id="H6wV0lY-GphbkO9nDZzQ-103" value="" style="shape=partialRectangle;connectable=1;fillColor=none;top=0;left=0;bottom=0;right=0;editable=1;overflow=hidden;movable=1;resizable=1;rotatable=1;deletable=1;locked=0;" vertex="1" parent="H6wV0lY-GphbkO9nDZzQ-102">
          <mxGeometry width="30" height="25" as="geometry">
            <mxRectangle width="30" height="25" as="alternateBounds" />
          </mxGeometry>
        </mxCell>
        <mxCell id="H6wV0lY-GphbkO9nDZzQ-104" value="Payment Date" style="shape=partialRectangle;connectable=1;fillColor=none;top=0;left=0;bottom=0;right=0;align=left;spacingLeft=6;overflow=hidden;movable=1;resizable=1;rotatable=1;deletable=1;editable=1;locked=0;" vertex="1" parent="H6wV0lY-GphbkO9nDZzQ-102">
          <mxGeometry x="30" width="130" height="25" as="geometry">
            <mxRectangle width="130" height="25" as="alternateBounds" />
          </mxGeometry>
        </mxCell>
        <mxCell id="H6wV0lY-GphbkO9nDZzQ-105" value="" style="shape=tableRow;horizontal=0;startSize=0;swimlaneHead=0;swimlaneBody=0;fillColor=none;collapsible=0;dropTarget=0;points=[[0,0.5],[1,0.5]];portConstraint=eastwest;top=0;left=0;right=0;bottom=0;movable=1;resizable=1;rotatable=1;deletable=1;editable=1;locked=0;connectable=1;" vertex="1" parent="H6wV0lY-GphbkO9nDZzQ-95">
          <mxGeometry y="110" width="160" height="25" as="geometry" />
        </mxCell>
        <mxCell id="H6wV0lY-GphbkO9nDZzQ-106" value="" style="shape=partialRectangle;connectable=1;fillColor=none;top=0;left=0;bottom=0;right=0;editable=1;overflow=hidden;movable=1;resizable=1;rotatable=1;deletable=1;locked=0;" vertex="1" parent="H6wV0lY-GphbkO9nDZzQ-105">
          <mxGeometry width="30" height="25" as="geometry">
            <mxRectangle width="30" height="25" as="alternateBounds" />
          </mxGeometry>
        </mxCell>
        <mxCell id="H6wV0lY-GphbkO9nDZzQ-107" value="Payment Method" style="shape=partialRectangle;connectable=1;fillColor=none;top=0;left=0;bottom=0;right=0;align=left;spacingLeft=6;overflow=hidden;movable=1;resizable=1;rotatable=1;deletable=1;editable=1;locked=0;" vertex="1" parent="H6wV0lY-GphbkO9nDZzQ-105">
          <mxGeometry x="30" width="130" height="25" as="geometry">
            <mxRectangle width="130" height="25" as="alternateBounds" />
          </mxGeometry>
        </mxCell>
        <mxCell id="H6wV0lY-GphbkO9nDZzQ-108" value="" style="shape=tableRow;horizontal=0;startSize=0;swimlaneHead=0;swimlaneBody=0;fillColor=none;collapsible=0;dropTarget=0;points=[[0,0.5],[1,0.5]];portConstraint=eastwest;top=0;left=0;right=0;bottom=0;movable=1;resizable=1;rotatable=1;deletable=1;editable=1;locked=0;connectable=1;" vertex="1" parent="H6wV0lY-GphbkO9nDZzQ-95">
          <mxGeometry y="135" width="160" height="25" as="geometry" />
        </mxCell>
        <mxCell id="H6wV0lY-GphbkO9nDZzQ-109" value="" style="shape=partialRectangle;connectable=1;fillColor=none;top=0;left=0;bottom=0;right=0;editable=1;overflow=hidden;movable=1;resizable=1;rotatable=1;deletable=1;locked=0;" vertex="1" parent="H6wV0lY-GphbkO9nDZzQ-108">
          <mxGeometry width="30" height="25" as="geometry">
            <mxRectangle width="30" height="25" as="alternateBounds" />
          </mxGeometry>
        </mxCell>
        <mxCell id="H6wV0lY-GphbkO9nDZzQ-110" value="Amount" style="shape=partialRectangle;connectable=1;fillColor=none;top=0;left=0;bottom=0;right=0;align=left;spacingLeft=6;overflow=hidden;movable=1;resizable=1;rotatable=1;deletable=1;editable=1;locked=0;" vertex="1" parent="H6wV0lY-GphbkO9nDZzQ-108">
          <mxGeometry x="30" width="130" height="25" as="geometry">
            <mxRectangle width="130" height="25" as="alternateBounds" />
          </mxGeometry>
        </mxCell>
        <mxCell id="H6wV0lY-GphbkO9nDZzQ-111" value="Product_Review" style="shape=table;startSize=30;container=1;collapsible=1;childLayout=tableLayout;fixedRows=1;rowLines=0;fontStyle=1;align=center;resizeLast=1;movable=1;resizable=1;rotatable=1;deletable=1;editable=1;locked=0;connectable=1;" vertex="1" parent="1">
          <mxGeometry x="1050" y="730" width="160" height="195" as="geometry" />
        </mxCell>
        <mxCell id="H6wV0lY-GphbkO9nDZzQ-112" value="" style="shape=tableRow;horizontal=0;startSize=0;swimlaneHead=0;swimlaneBody=0;fillColor=none;collapsible=0;dropTarget=0;points=[[0,0.5],[1,0.5]];portConstraint=eastwest;top=0;left=0;right=0;bottom=1;movable=1;resizable=1;rotatable=1;deletable=1;editable=1;locked=0;connectable=1;" vertex="1" parent="H6wV0lY-GphbkO9nDZzQ-111">
          <mxGeometry y="30" width="160" height="30" as="geometry" />
        </mxCell>
        <mxCell id="H6wV0lY-GphbkO9nDZzQ-113" value="PK" style="shape=partialRectangle;connectable=1;fillColor=none;top=0;left=0;bottom=0;right=0;fontStyle=1;overflow=hidden;movable=1;resizable=1;rotatable=1;deletable=1;editable=1;locked=0;" vertex="1" parent="H6wV0lY-GphbkO9nDZzQ-112">
          <mxGeometry width="30" height="30" as="geometry">
            <mxRectangle width="30" height="30" as="alternateBounds" />
          </mxGeometry>
        </mxCell>
        <mxCell id="H6wV0lY-GphbkO9nDZzQ-114" value="Review_ID" style="shape=partialRectangle;connectable=1;fillColor=none;top=0;left=0;bottom=0;right=0;align=left;spacingLeft=6;fontStyle=1;overflow=hidden;movable=1;resizable=1;rotatable=1;deletable=1;editable=1;locked=0;" vertex="1" parent="H6wV0lY-GphbkO9nDZzQ-112">
          <mxGeometry x="30" width="130" height="30" as="geometry">
            <mxRectangle width="130" height="30" as="alternateBounds" />
          </mxGeometry>
        </mxCell>
        <mxCell id="H6wV0lY-GphbkO9nDZzQ-115" value="" style="shape=tableRow;horizontal=0;startSize=0;swimlaneHead=0;swimlaneBody=0;fillColor=none;collapsible=0;dropTarget=0;points=[[0,0.5],[1,0.5]];portConstraint=eastwest;top=0;left=0;right=0;bottom=0;movable=1;resizable=1;rotatable=1;deletable=1;editable=1;locked=0;connectable=1;" vertex="1" parent="H6wV0lY-GphbkO9nDZzQ-111">
          <mxGeometry y="60" width="160" height="25" as="geometry" />
        </mxCell>
        <mxCell id="H6wV0lY-GphbkO9nDZzQ-116" value="FK" style="shape=partialRectangle;connectable=1;fillColor=none;top=0;left=0;bottom=0;right=0;editable=1;overflow=hidden;movable=1;resizable=1;rotatable=1;deletable=1;locked=0;" vertex="1" parent="H6wV0lY-GphbkO9nDZzQ-115">
          <mxGeometry width="30" height="25" as="geometry">
            <mxRectangle width="30" height="25" as="alternateBounds" />
          </mxGeometry>
        </mxCell>
        <mxCell id="H6wV0lY-GphbkO9nDZzQ-117" value="Customer_ID" style="shape=partialRectangle;connectable=1;fillColor=none;top=0;left=0;bottom=0;right=0;align=left;spacingLeft=6;overflow=hidden;spacing=2;spacingBottom=0;spacingTop=0;movable=1;resizable=1;rotatable=1;deletable=1;editable=1;locked=0;" vertex="1" parent="H6wV0lY-GphbkO9nDZzQ-115">
          <mxGeometry x="30" width="130" height="25" as="geometry">
            <mxRectangle width="130" height="25" as="alternateBounds" />
          </mxGeometry>
        </mxCell>
        <mxCell id="H6wV0lY-GphbkO9nDZzQ-118" value="" style="shape=tableRow;horizontal=0;startSize=0;swimlaneHead=0;swimlaneBody=0;fillColor=none;collapsible=0;dropTarget=0;points=[[0,0.5],[1,0.5]];portConstraint=eastwest;top=0;left=0;right=0;bottom=0;movable=1;resizable=1;rotatable=1;deletable=1;editable=1;locked=0;connectable=1;" vertex="1" parent="H6wV0lY-GphbkO9nDZzQ-111">
          <mxGeometry y="85" width="160" height="25" as="geometry" />
        </mxCell>
        <mxCell id="H6wV0lY-GphbkO9nDZzQ-119" value="FK" style="shape=partialRectangle;connectable=1;fillColor=none;top=0;left=0;bottom=0;right=0;editable=1;overflow=hidden;movable=1;resizable=1;rotatable=1;deletable=1;locked=0;" vertex="1" parent="H6wV0lY-GphbkO9nDZzQ-118">
          <mxGeometry width="30" height="25" as="geometry">
            <mxRectangle width="30" height="25" as="alternateBounds" />
          </mxGeometry>
        </mxCell>
        <mxCell id="H6wV0lY-GphbkO9nDZzQ-120" value="Product_ID" style="shape=partialRectangle;connectable=1;fillColor=none;top=0;left=0;bottom=0;right=0;align=left;spacingLeft=6;overflow=hidden;movable=1;resizable=1;rotatable=1;deletable=1;editable=1;locked=0;" vertex="1" parent="H6wV0lY-GphbkO9nDZzQ-118">
          <mxGeometry x="30" width="130" height="25" as="geometry">
            <mxRectangle width="130" height="25" as="alternateBounds" />
          </mxGeometry>
        </mxCell>
        <mxCell id="H6wV0lY-GphbkO9nDZzQ-121" value="" style="shape=tableRow;horizontal=0;startSize=0;swimlaneHead=0;swimlaneBody=0;fillColor=none;collapsible=0;dropTarget=0;points=[[0,0.5],[1,0.5]];portConstraint=eastwest;top=0;left=0;right=0;bottom=0;movable=1;resizable=1;rotatable=1;deletable=1;editable=1;locked=0;connectable=1;" vertex="1" parent="H6wV0lY-GphbkO9nDZzQ-111">
          <mxGeometry y="110" width="160" height="25" as="geometry" />
        </mxCell>
        <mxCell id="H6wV0lY-GphbkO9nDZzQ-122" value="" style="shape=partialRectangle;connectable=1;fillColor=none;top=0;left=0;bottom=0;right=0;editable=1;overflow=hidden;movable=1;resizable=1;rotatable=1;deletable=1;locked=0;" vertex="1" parent="H6wV0lY-GphbkO9nDZzQ-121">
          <mxGeometry width="30" height="25" as="geometry">
            <mxRectangle width="30" height="25" as="alternateBounds" />
          </mxGeometry>
        </mxCell>
        <mxCell id="H6wV0lY-GphbkO9nDZzQ-123" value="Rating" style="shape=partialRectangle;connectable=1;fillColor=none;top=0;left=0;bottom=0;right=0;align=left;spacingLeft=6;overflow=hidden;movable=1;resizable=1;rotatable=1;deletable=1;editable=1;locked=0;" vertex="1" parent="H6wV0lY-GphbkO9nDZzQ-121">
          <mxGeometry x="30" width="130" height="25" as="geometry">
            <mxRectangle width="130" height="25" as="alternateBounds" />
          </mxGeometry>
        </mxCell>
        <mxCell id="H6wV0lY-GphbkO9nDZzQ-124" value="" style="shape=tableRow;horizontal=0;startSize=0;swimlaneHead=0;swimlaneBody=0;fillColor=none;collapsible=0;dropTarget=0;points=[[0,0.5],[1,0.5]];portConstraint=eastwest;top=0;left=0;right=0;bottom=0;movable=1;resizable=1;rotatable=1;deletable=1;editable=1;locked=0;connectable=1;" vertex="1" parent="H6wV0lY-GphbkO9nDZzQ-111">
          <mxGeometry y="135" width="160" height="25" as="geometry" />
        </mxCell>
        <mxCell id="H6wV0lY-GphbkO9nDZzQ-125" value="" style="shape=partialRectangle;connectable=1;fillColor=none;top=0;left=0;bottom=0;right=0;editable=1;overflow=hidden;movable=1;resizable=1;rotatable=1;deletable=1;locked=0;" vertex="1" parent="H6wV0lY-GphbkO9nDZzQ-124">
          <mxGeometry width="30" height="25" as="geometry">
            <mxRectangle width="30" height="25" as="alternateBounds" />
          </mxGeometry>
        </mxCell>
        <mxCell id="H6wV0lY-GphbkO9nDZzQ-126" value="Review Text" style="shape=partialRectangle;connectable=1;fillColor=none;top=0;left=0;bottom=0;right=0;align=left;spacingLeft=6;overflow=hidden;movable=1;resizable=1;rotatable=1;deletable=1;editable=1;locked=0;" vertex="1" parent="H6wV0lY-GphbkO9nDZzQ-124">
          <mxGeometry x="30" width="130" height="25" as="geometry">
            <mxRectangle width="130" height="25" as="alternateBounds" />
          </mxGeometry>
        </mxCell>
        <mxCell id="H6wV0lY-GphbkO9nDZzQ-137" value="" style="shape=tableRow;horizontal=0;startSize=0;swimlaneHead=0;swimlaneBody=0;fillColor=none;collapsible=0;dropTarget=0;points=[[0,0.5],[1,0.5]];portConstraint=eastwest;top=0;left=0;right=0;bottom=0;movable=1;resizable=1;rotatable=1;deletable=1;editable=1;locked=0;connectable=1;" vertex="1" parent="H6wV0lY-GphbkO9nDZzQ-111">
          <mxGeometry y="160" width="160" height="25" as="geometry" />
        </mxCell>
        <mxCell id="H6wV0lY-GphbkO9nDZzQ-138" value="" style="shape=partialRectangle;connectable=1;fillColor=none;top=0;left=0;bottom=0;right=0;editable=1;overflow=hidden;movable=1;resizable=1;rotatable=1;deletable=1;locked=0;" vertex="1" parent="H6wV0lY-GphbkO9nDZzQ-137">
          <mxGeometry width="30" height="25" as="geometry">
            <mxRectangle width="30" height="25" as="alternateBounds" />
          </mxGeometry>
        </mxCell>
        <mxCell id="H6wV0lY-GphbkO9nDZzQ-139" value="Review Date" style="shape=partialRectangle;connectable=1;fillColor=none;top=0;left=0;bottom=0;right=0;align=left;spacingLeft=6;overflow=hidden;movable=1;resizable=1;rotatable=1;deletable=1;editable=1;locked=0;" vertex="1" parent="H6wV0lY-GphbkO9nDZzQ-137">
          <mxGeometry x="30" width="130" height="25" as="geometry">
            <mxRectangle width="130" height="25" as="alternateBounds" />
          </mxGeometry>
        </mxCell>
        <mxCell id="H6wV0lY-GphbkO9nDZzQ-128" style="edgeStyle=orthogonalEdgeStyle;rounded=0;orthogonalLoop=1;jettySize=auto;html=1;entryX=0;entryY=0.5;entryDx=0;entryDy=0;exitX=1;exitY=0.5;exitDx=0;exitDy=0;endArrow=ERmandOne;endFill=0;startArrow=ERoneToMany;startFill=0;" edge="1" parent="1" source="H6wV0lY-GphbkO9nDZzQ-101" target="W24L-8EDtj-rmbcyrjGX-76">
          <mxGeometry relative="1" as="geometry">
            <mxPoint x="700" y="580" as="targetPoint" />
          </mxGeometry>
        </mxCell>
        <mxCell id="H6wV0lY-GphbkO9nDZzQ-131" value="is for order" style="text;html=1;strokeColor=none;fillColor=none;align=center;verticalAlign=middle;whiteSpace=wrap;rounded=0;" vertex="1" parent="1">
          <mxGeometry x="757" y="815" width="70" height="20" as="geometry" />
        </mxCell>
        <mxCell id="H6wV0lY-GphbkO9nDZzQ-133" value="has payment" style="text;html=1;strokeColor=none;fillColor=none;align=center;verticalAlign=middle;whiteSpace=wrap;rounded=0;" vertex="1" parent="1">
          <mxGeometry x="750.5" y="620" width="70" height="20" as="geometry" />
        </mxCell>
        <mxCell id="H6wV0lY-GphbkO9nDZzQ-134" style="edgeStyle=orthogonalEdgeStyle;rounded=0;orthogonalLoop=1;jettySize=auto;html=1;exitX=0;exitY=0.5;exitDx=0;exitDy=0;startArrow=ERmandOne;startFill=0;endArrow=ERoneToMany;endFill=0;" edge="1" parent="1" source="W24L-8EDtj-rmbcyrjGX-376" target="H6wV0lY-GphbkO9nDZzQ-120">
          <mxGeometry relative="1" as="geometry">
            <mxPoint x="1420" y="900" as="targetPoint" />
            <Array as="points">
              <mxPoint x="888" y="231" />
              <mxPoint x="888" y="500" />
              <mxPoint x="1080" y="500" />
              <mxPoint x="1080" y="690" />
              <mxPoint x="1340" y="690" />
              <mxPoint x="1340" y="828" />
            </Array>
          </mxGeometry>
        </mxCell>
        <mxCell id="H6wV0lY-GphbkO9nDZzQ-135" value="has review" style="text;html=1;strokeColor=none;fillColor=none;align=center;verticalAlign=middle;whiteSpace=wrap;rounded=0;" vertex="1" parent="1">
          <mxGeometry x="838.5" y="206" width="70" height="20" as="geometry" />
        </mxCell>
        <mxCell id="H6wV0lY-GphbkO9nDZzQ-136" value="reviewed in" style="text;html=1;strokeColor=none;fillColor=none;align=center;verticalAlign=middle;whiteSpace=wrap;rounded=0;" vertex="1" parent="1">
          <mxGeometry x="1217.5" y="805" width="70" height="20" as="geometry" />
        </mxCell>
        <mxCell id="H6wV0lY-GphbkO9nDZzQ-140" style="edgeStyle=orthogonalEdgeStyle;rounded=0;orthogonalLoop=1;jettySize=auto;html=1;entryX=0;entryY=0.75;entryDx=0;entryDy=0;exitX=1;exitY=0.5;exitDx=0;exitDy=0;startArrow=ERmandOne;startFill=0;endArrow=ERoneToMany;endFill=0;" edge="1" parent="1" source="W24L-8EDtj-rmbcyrjGX-291" target="H6wV0lY-GphbkO9nDZzQ-116">
          <mxGeometry relative="1" as="geometry">
            <Array as="points">
              <mxPoint x="850" y="145" />
              <mxPoint x="850" y="450" />
              <mxPoint x="1000" y="450" />
              <mxPoint x="1000" y="809" />
            </Array>
          </mxGeometry>
        </mxCell>
        <mxCell id="H6wV0lY-GphbkO9nDZzQ-141" value="Writes" style="text;html=1;strokeColor=none;fillColor=none;align=center;verticalAlign=middle;whiteSpace=wrap;rounded=0;" vertex="1" parent="1">
          <mxGeometry x="773.5" y="120" width="34" height="20" as="geometry" />
        </mxCell>
        <mxCell id="H6wV0lY-GphbkO9nDZzQ-142" value="Is written by" style="text;html=1;strokeColor=none;fillColor=none;align=center;verticalAlign=middle;whiteSpace=wrap;rounded=0;" vertex="1" parent="1">
          <mxGeometry x="970" y="815" width="70" height="20" as="geometry" />
        </mxCell>
      </root>
    </mxGraphModel>
  </diagram>
</mxfile>
